<svg width="18" height="25" viewBox="0 0 18 25" fill="none" xmlns="http://www.w3.org/2000/svg">
<path fill-rule="evenodd" clip-rule="evenodd" d="M9.01875 10.475C6.53346 10.475 4.51874 8.32597 4.51874 5.675C4.51874 3.02403 6.53346 0.875 9.01875 0.875C11.504 0.875 13.5188 3.02403 13.5188 5.675C13.5188 8.32597 11.504 10.475 9.01875 10.475ZM9.01875 8.6C7.68115 8.6 6.39375 7.40626 6.39375 5.675C6.39375 3.94374 7.68115 2.75 9.01875 2.75C10.3563 2.75 11.6437 3.94374 11.6437 5.675C11.6437 7.40626 10.3563 8.6 9.01875 8.6Z" fill="white"/>
<path d="M15.2813 19.2871C15.2813 16.5542 12.6159 14.0938 9 14.0938C5.38409 14.0938 2.71874 16.5542 2.71874 19.2871L2.71874 24.125L0.881242 24.125L0.881241 19.2871C0.881241 15.2687 4.663 12.2563 9 12.2563C13.337 12.2563 17.1188 15.2687 17.1188 19.2871V24.125H15.2813V19.2871Z" fill="white"/>
</svg>
