<svg width="18" height="16" viewBox="0 0 18 16" fill="none" xmlns="http://www.w3.org/2000/svg">
<path fill-rule="evenodd" clip-rule="evenodd" d="M9.44253 1.97061C9.18216 1.7554 8.80561 1.75556 8.54542 1.97098L2.22486 7.20406C2.06338 7.33775 1.96992 7.53647 1.96992 7.7461V15.5981H0.5625V7.7461C0.5625 7.11721 0.842883 6.52105 1.3273 6.11998L7.64786 0.886902C8.42843 0.240637 9.55808 0.240166 10.3392 0.88578L16.6713 6.11958C17.1566 6.52064 17.4375 7.11731 17.4375 7.74682V15.5981H16.0301V7.74682C16.0301 7.53698 15.9364 7.33809 15.7747 7.20441L9.44253 1.97061Z" fill="#2C3357"/>
<path fill-rule="evenodd" clip-rule="evenodd" d="M9 10.8163C7.8402 10.8163 6.97507 11.691 6.97507 12.6706H5.56765C5.56765 10.8297 7.14957 9.40883 9 9.40883C10.8504 9.40883 12.4324 10.8297 12.4324 12.6706H11.0249C11.0249 11.691 10.1598 10.8163 9 10.8163Z" fill="#2C3357"/>
<path fill-rule="evenodd" clip-rule="evenodd" d="M5.56765 15.5981V12.6706H6.97507V15.5981L5.56765 15.5981Z" fill="#2C3357"/>
<path fill-rule="evenodd" clip-rule="evenodd" d="M11.0249 15.5981V12.6706H12.4324V15.5981L11.0249 15.5981Z" fill="#2C3357"/>
</svg>
