<svg width="24" height="23" viewBox="0 0 24 23" fill="none" xmlns="http://www.w3.org/2000/svg">
<path d="M12.0075 9.50234C12.6962 9.50234 13.34 9.74189 13.8191 10.1611C14.2233 10.5204 14.4479 10.9995 14.4479 11.4786C14.4479 11.9577 14.2233 12.4368 13.8191 12.7962C13.34 13.2154 12.7112 13.4549 12.0075 13.4549C11.3038 13.4549 10.675 13.2154 10.1959 12.7962C9.79164 12.4368 9.56706 11.9577 9.56706 11.4786C9.56706 10.9995 9.79164 10.5204 10.1959 10.1611C10.675 9.74189 11.3188 9.50234 12.0075 9.50234ZM12.0075 7.52604C9.56707 7.52604 7.57579 9.29273 7.57579 11.4786C7.57579 13.6645 9.5521 15.4312 12.0075 15.4312C14.4629 15.4312 16.4392 13.6645 16.4392 11.4786C16.4392 9.29273 14.4479 7.52604 12.0075 7.52604Z" fill="white"/>
<path d="M21.2901 12.8411C21.3649 12.4069 21.4099 11.9428 21.4099 11.4936V11.4637C21.4099 10.9995 21.3649 10.5504 21.2901 10.1162L23.985 8.5591C23.5209 6.94214 22.6825 5.47489 21.5596 4.23222C21.0955 3.72317 20.5864 3.24407 20.0324 2.80988L17.1878 4.4568C16.6488 4.14238 16.0799 3.87289 15.466 3.64831L15.481 0.534149C14.3731 0.234711 13.2202 0.0849915 12.0075 0.0849915C11.4984 0.0849915 10.5253 0.159851 10.5253 0.159851C10.5253 0.159851 9.17779 0.354486 8.53399 0.534149V3.64831C7.92015 3.85792 7.33626 4.14238 6.79727 4.4568L3.95259 2.80988C3.39863 3.24407 2.8896 3.72317 2.42547 4.23222C1.30257 5.47489 0.46413 6.95711 0 8.5591L2.69495 10.1162C2.62009 10.5504 2.57517 11.0145 2.57517 11.4637V11.4936C2.57517 11.9577 2.62009 12.4069 2.69495 12.8411L0.0299503 14.3982C0.49408 16.0151 1.3325 17.4824 2.4554 18.725C2.91953 19.2341 3.42858 19.7132 3.98254 20.1474L6.8272 18.5005C7.36619 18.8149 7.9501 19.0993 8.56394 19.3089V22.4231C9.20774 22.5878 9.86651 22.7225 10.5403 22.7974C11.0343 22.8573 11.5284 22.8723 12.0225 22.8723C13.2352 22.8723 14.388 22.7076 15.496 22.4231L15.481 19.3089C16.0948 19.0993 16.6638 18.8298 17.2028 18.5005L20.0474 20.1474C20.6014 19.7132 21.1104 19.2341 21.5746 18.725C22.6974 17.4824 23.5359 16.0002 24 14.3982L21.2901 12.8411ZM19.7929 17.707L17.0979 16.1499C16.1098 16.9584 14.8671 17.5423 13.4747 17.7818V20.7912C12.9956 20.8511 12.5016 20.881 12.0075 20.881C11.5134 20.881 11.0044 20.8511 10.5253 20.7912V17.7818C9.14785 17.5423 7.89021 16.9584 6.90206 16.1499L4.20711 17.707C3.48846 16.9733 2.90457 16.1499 2.47038 15.2665L5.06052 13.7693C4.74611 13.0507 4.56644 12.2721 4.56644 11.4637C4.56644 10.6552 4.74611 9.87663 5.06052 9.15798L2.47038 7.66079C2.90457 6.77744 3.47348 5.95399 4.20711 5.22036L6.90206 6.77744C7.89021 5.96896 9.13287 5.38505 10.5253 5.1455V2.16609C11.0193 2.1062 11.5134 2.07626 12.0075 2.07626C12.5016 2.07626 12.9956 2.1062 13.4747 2.16609V5.17545C14.8522 5.415 16.1098 5.9989 17.0979 6.80739L19.7929 5.25031C20.5115 5.98393 21.0955 6.80739 21.5296 7.69073L18.9395 9.18792C19.2539 9.90658 19.4336 10.6851 19.4336 11.4936C19.4336 12.3021 19.2539 13.0806 18.9395 13.7993L19.1042 13.8891L21.5296 15.2815C21.0955 16.1499 20.5265 16.9733 19.7929 17.707Z" fill="white"/>
</svg>
