<svg width="14" height="20" viewBox="0 0 14 20" fill="none" xmlns="http://www.w3.org/2000/svg">
<path d="M13.2775 14.0499L11.7813 11.5974V8.12117C11.8345 7.19687 11.625 6.27639 11.1771 5.46613C10.7291 4.65587 10.061 3.98893 9.25001 3.54242C9.26107 3.40013 9.26107 3.2572 9.25001 3.11492C9.24128 2.82826 9.17614 2.54614 9.05832 2.28468C8.94049 2.02321 8.77229 1.78753 8.56333 1.59111C8.35437 1.39469 8.10875 1.24137 7.8405 1.13993C7.57226 1.03849 7.28665 0.990913 7.00001 0.999916C6.71336 0.990913 6.42775 1.03849 6.15951 1.13993C5.89126 1.24137 5.64564 1.39469 5.43668 1.59111C5.22772 1.78753 5.05952 2.02321 4.9417 2.28468C4.82387 2.54614 4.75873 2.82826 4.75001 3.11492C4.73344 3.25693 4.73344 3.4004 4.75001 3.54242C3.93897 3.98893 3.27087 4.65587 2.82294 5.46613C2.37501 6.27639 2.16554 7.19687 2.21876 8.12117V11.5974L0.722505 14.0499C0.593078 14.2625 0.522391 14.5056 0.517664 14.7545C0.512937 15.0033 0.574338 15.249 0.695598 15.4663C0.816858 15.6837 0.993632 15.865 1.20787 15.9916C1.4221 16.1183 1.66612 16.1859 1.91501 16.1874H3.90626C3.9583 16.9652 4.3096 17.6927 4.88642 18.217C5.46325 18.7414 6.22076 19.022 7.00001 18.9999C7.77925 19.022 8.53677 18.7414 9.11359 18.217C9.69042 17.6927 10.0417 16.9652 10.0938 16.1874H12.085C12.3339 16.1859 12.5779 16.1183 12.7921 15.9916C13.0064 15.865 13.1832 15.6837 13.3044 15.4663C13.4257 15.249 13.4871 15.0033 13.4823 14.7545C13.4776 14.5056 13.4069 14.2625 13.2775 14.0499ZM6.15626 3.11492C6.17626 2.9099 6.27579 2.72088 6.43352 2.58839C6.59125 2.45589 6.79461 2.39048 7.00001 2.40617C7.2054 2.39048 7.40876 2.45589 7.56649 2.58839C7.72422 2.72088 7.82376 2.9099 7.84376 3.11492C7.56278 3.09732 7.28098 3.09732 7.00001 3.11492C6.71904 3.09702 6.43722 3.09702 6.15626 3.11492ZM7.00001 17.5937C6.5935 17.6141 6.19419 17.4808 5.88151 17.2202C5.56883 16.9597 5.3657 16.5909 5.31251 16.1874H8.68751C8.63432 16.5909 8.43118 16.9597 8.1185 17.2202C7.80582 17.4808 7.40651 17.6141 7.00001 17.5937ZM1.91501 14.7812L3.42251 12.3399L3.62501 11.9912V8.12117C3.6223 7.27865 3.85617 6.4523 4.30001 5.73617C4.60625 5.31645 5.01577 4.983 5.48883 4.76815C5.96189 4.5533 6.48244 4.46435 7.00001 4.50992C7.51757 4.46435 8.03812 4.5533 8.51119 4.76815C8.98425 4.983 9.39376 5.31645 9.70001 5.73617C10.1438 6.4523 10.3777 7.27865 10.375 8.12117V11.9912L10.5775 12.3399L12.085 14.7812H1.91501Z" fill="#2C3357"/>
</svg>
