<svg width="22" height="18" viewBox="0 0 22 18" fill="none" xmlns="http://www.w3.org/2000/svg">
<path fill-rule="evenodd" clip-rule="evenodd" d="M19.2992 5.65286C19.5471 5.1932 19.5631 4.86992 19.5035 4.64737C19.4439 4.42481 19.2683 4.15287 18.8238 3.87871C18.3718 3.59992 17.7038 3.36208 16.8242 3.22046C15.0681 2.9377 12.6958 3.07521 10.1509 3.75711C7.60605 4.439 5.48287 5.50605 4.10338 6.629C3.41246 7.19143 2.95283 7.73144 2.70077 8.19888C2.45291 8.65854 2.43688 8.98182 2.49651 9.20437C2.55614 9.42693 2.73167 9.69888 3.17616 9.97303C3.62816 10.2518 4.29622 10.4897 5.17579 10.6313C6.93193 10.914 9.30419 10.7765 11.8491 10.0946C14.3939 9.41274 16.5171 8.34569 17.8966 7.22274C18.5875 6.66031 19.0472 6.12031 19.2992 5.65286ZM12.1615 11.2608C17.5019 9.82981 21.3111 6.729 20.6696 4.3349C20.0281 1.94081 15.1789 1.16003 9.83847 2.59098C4.49809 4.02193 0.688889 7.12274 1.33038 9.51684C1.97188 11.9109 6.82115 12.6917 12.1615 11.2608Z" fill="#2C3357"/>
<path fill-rule="evenodd" clip-rule="evenodd" d="M17.5389 9.18863C17.7759 9.33475 17.8115 9.44227 17.8182 9.46709C17.8248 9.4919 17.8477 9.60284 17.7156 9.84785C17.5793 10.1006 17.3122 10.4237 16.8756 10.779C16.0048 11.4879 14.6374 12.1807 12.9747 12.6262C11.312 13.0717 9.78133 13.1555 8.67275 12.977C8.11697 12.8875 7.72418 12.7413 7.47975 12.5905C7.24283 12.4444 7.20717 12.3369 7.20052 12.3121C7.19388 12.2873 7.171 12.1763 7.30311 11.9313C7.43941 11.6785 7.70647 11.3555 8.14305 11.0001C9.01386 10.2912 10.3813 9.5985 12.044 9.15299C13.7067 8.70747 15.2374 8.62367 16.3459 8.80216C16.9017 8.89165 17.2945 9.03787 17.5389 9.18863ZM11.7316 7.98686C15.3076 7.02867 18.5547 7.5515 18.9843 9.15462C19.4138 10.7578 16.8631 12.8341 13.2871 13.7923C9.71111 14.7505 6.46396 14.2277 6.0344 12.6245C5.60484 11.0214 8.15555 8.94505 11.7316 7.98686Z" fill="#2C3357"/>
<path fill-rule="evenodd" clip-rule="evenodd" d="M16.1952 14.0733C16.1354 14.1397 16.0545 14.2181 15.9471 14.3056C15.4951 14.6735 14.7498 15.0581 13.8134 15.309C12.877 15.5599 12.0393 15.5995 11.4638 15.5068C11.327 15.4848 11.2178 15.4574 11.1328 15.4297C11.1926 15.3634 11.2735 15.285 11.3809 15.1975C11.833 14.8295 12.5782 14.4449 13.5146 14.194C14.451 13.9431 15.2887 13.9035 15.8642 13.9962C16.001 14.0182 16.1103 14.0457 16.1952 14.0733ZM13.2022 13.0279C15.3256 12.4589 17.2537 12.7694 17.5088 13.7213C17.7638 14.6732 16.2492 15.9062 14.1258 16.4751C12.0024 17.0441 10.0743 16.7336 9.81926 15.7817C9.56419 14.8298 11.0788 13.5969 13.2022 13.0279Z" fill="#2C3357"/>
</svg>
