<svg width="175" height="49" viewBox="0 0 175 49" fill="none" xmlns="http://www.w3.org/2000/svg">
<path fill-rule="evenodd" clip-rule="evenodd" d="M53.9297 15.8232C54.6285 14.5365 54.6737 13.6316 54.5056 13.0086C54.3375 12.3857 53.8426 11.6245 52.5896 10.8571C51.3154 10.0767 49.4321 9.41093 46.9525 9.01452C42.0018 8.22304 35.3143 8.60793 28.1401 10.5167C20.9659 12.4254 14.9805 15.4122 11.0917 18.5555C9.14394 20.1298 7.8482 21.6414 7.13765 22.9498C6.43891 24.2365 6.3937 25.1414 6.56181 25.7644C6.72992 26.3874 7.22475 27.1486 8.47778 27.916C9.75201 28.6963 11.6353 29.3621 14.1149 29.7585C19.0655 30.55 25.7531 30.1651 32.9273 28.2564C40.1014 26.3476 46.0868 23.3608 49.9757 20.2175C51.9235 18.6432 53.2192 17.1316 53.9297 15.8232ZM33.8081 31.5205C48.863 27.5151 59.6014 18.8354 57.793 12.134C55.9845 5.43258 42.3141 3.24705 27.2593 7.2525C12.2044 11.2579 1.46601 19.9376 3.27443 26.639C5.08285 33.3404 18.7532 35.526 33.8081 31.5205Z" fill="#FAFAFA"/>
<path fill-rule="evenodd" clip-rule="evenodd" d="M48.9674 25.7203C49.6353 26.1294 49.7358 26.4303 49.7546 26.4998C49.7733 26.5692 49.8378 26.8798 49.4654 27.5656C49.0811 28.2732 48.3283 29.1774 47.0975 30.1721C44.6427 32.1564 40.7877 34.0955 36.1004 35.3425C31.4132 36.5896 27.0982 36.8242 23.9731 36.3246C22.4063 36.0741 21.299 35.6648 20.6099 35.2428C19.942 34.8337 19.8415 34.5328 19.8228 34.4633C19.804 34.3939 19.7395 34.0833 20.112 33.3975C20.4962 32.6899 21.2491 31.7858 22.4798 30.791C24.9347 28.8067 28.7897 26.8676 33.4769 25.6206C38.1641 24.3735 42.4791 24.1389 45.6043 24.6386C47.171 24.889 48.2783 25.2983 48.9674 25.7203ZM32.5961 22.3564C42.6771 19.6743 51.831 21.1378 53.0419 25.6252C54.2529 30.1125 47.0623 35.9246 36.9813 38.6067C26.9003 41.2888 17.7463 39.8254 16.5354 35.338C15.3245 30.8506 22.5151 25.0385 32.5961 22.3564Z" fill="#FAFAFA"/>
<path fill-rule="evenodd" clip-rule="evenodd" d="M45.1793 39.3932C45.0108 39.5791 44.7827 39.7985 44.4797 40.0434C43.2055 41.0734 41.1045 42.1498 38.4647 42.8522C35.825 43.5545 33.4634 43.6653 31.8412 43.406C31.4556 43.3443 31.1475 43.2675 30.908 43.1902C31.0765 43.0043 31.3046 42.7849 31.6075 42.54C32.8818 41.5101 34.9828 40.4336 37.6225 39.7312C40.2623 39.0289 42.6239 38.9181 44.2461 39.1775C44.6317 39.2391 44.9398 39.3159 45.1793 39.3932ZM36.7417 36.4671C42.7277 34.8745 48.1632 35.7435 48.8822 38.408C49.6013 41.0726 45.3316 44.5237 39.3456 46.1163C33.3596 47.7089 27.9241 46.8399 27.2051 44.1754C26.486 41.5108 30.7557 38.0597 36.7417 36.4671Z" fill="#FAFAFA"/>
<path d="M63.6336 15.584H67.6594V27.6839H70.9452V15.584H74.9492V12.559H63.6336V15.584Z" fill="#FAFAFA"/>
<path d="M78.3148 12.0836C75.8776 12.0836 75.8776 15.7568 78.3148 15.7568C80.752 15.7568 80.752 12.0836 78.3148 12.0836ZM79.9033 27.6839V17.01H76.7263V27.6839H79.9033Z" fill="#FAFAFA"/>
<path d="M85.8748 21.9796C85.8748 20.5104 86.6146 19.6029 87.7462 19.6029C88.8777 19.6029 89.4435 20.3159 89.4435 21.7636V27.6839H92.6206V21.9148C92.6858 18.8682 96.1893 18.8034 96.1893 21.7204V27.6839H99.3664V20.9857C99.3664 18.3281 97.9519 16.7291 95.5147 16.7291C93.948 16.7291 92.7946 17.3557 92.0548 18.5873C91.4455 17.3557 90.401 16.7291 88.8995 16.7291C87.5286 16.7291 86.5276 17.2693 85.8748 18.3497V17.01H82.6977V27.6839H85.8748V21.9796Z" fill="#FAFAFA"/>
<path d="M109.413 24.0755C108.869 24.9398 108.107 25.3719 107.106 25.3719C105.779 25.3719 104.625 24.4428 104.517 23.2112H112.416C112.437 23.0168 112.459 22.7575 112.459 22.4334C112.459 19.0843 110.218 16.7291 106.975 16.7291C103.777 16.7291 101.405 19.1275 101.405 22.347C101.405 25.6528 103.733 27.9648 107.106 27.9648C109.434 27.9648 111.197 26.9276 112.089 25.1343L109.413 24.0755ZM104.538 21.1586C104.647 20.1214 105.713 19.1923 106.954 19.1923C108.238 19.1923 109.195 20.0134 109.347 21.1586H104.538Z" fill="#FAFAFA"/>
<path d="M123.376 27.6839V19.6029H125.334V17.01H123.376V13.877H120.199V17.01H118.48V19.6029H120.199V27.6839H123.376Z" fill="#FAFAFA"/>
<path d="M134.304 16.8372C134.174 16.794 133.999 16.7724 133.76 16.7724C132.346 16.7724 131.301 17.4422 130.67 18.7602V17.01H127.537V27.6839H130.692V23.3409C130.692 21.245 131.736 19.9486 133.499 19.9486C133.869 19.9486 134.13 19.9918 134.304 20.0782V16.8372Z" fill="#FAFAFA"/>
<path d="M135.321 24.8102C135.321 26.7116 136.714 27.9648 138.868 27.9648C140.283 27.9648 141.327 27.4678 142.002 26.4739L142.024 27.6839H144.961V20.8129C144.961 18.1984 143.307 16.7291 140.326 16.7291C137.998 16.7291 136.235 17.9391 135.713 19.8405L138.542 20.532C138.825 19.6461 139.412 19.1923 140.304 19.1923C141.262 19.1923 141.893 19.7757 141.893 20.6184V20.9857L139.216 21.353C136.627 21.7204 135.321 22.8871 135.321 24.8102ZM138.411 24.5941C138.411 23.9243 138.912 23.5353 139.935 23.4057L141.893 23.1248V23.5569C141.893 24.7669 141.001 25.588 139.695 25.588C138.934 25.588 138.433 25.1991 138.411 24.5941Z" fill="#FAFAFA"/>
<path d="M150.86 27.6839H153.776L158.15 17.01H154.885L152.361 23.7514L149.837 17.01H146.486L150.86 27.6839Z" fill="#FAFAFA"/>
<path d="M166.747 24.0755C166.203 24.9398 165.441 25.3719 164.44 25.3719C163.113 25.3719 161.96 24.4428 161.851 23.2112H169.75C169.772 23.0168 169.793 22.7575 169.793 22.4334C169.793 19.0843 167.552 16.7291 164.31 16.7291C161.111 16.7291 158.739 19.1275 158.739 22.347C158.739 25.6528 161.067 27.9648 164.44 27.9648C166.769 27.9648 168.531 26.9276 169.423 25.1343L166.747 24.0755ZM161.873 21.1586C161.981 20.1214 163.048 19.1923 164.288 19.1923C165.572 19.1923 166.529 20.0134 166.682 21.1586H161.873Z" fill="#FAFAFA"/>
<path d="M171.823 12.559V27.6839H175V12.559H171.823Z" fill="#FAFAFA"/>
<path d="M100.997 46.41H99.748V41.2183H100.997V41.9066C101.33 41.405 101.877 41.09 102.614 41.09C103.911 41.09 104.66 41.93 104.66 43.2833V46.41H103.411V43.5166C103.411 42.7116 103.007 42.2216 102.234 42.2216C101.484 42.2216 100.997 42.7816 100.997 43.6683V46.41ZM105.576 44.17V41.2183H106.825V44.1C106.825 44.9166 107.229 45.4066 107.931 45.4066C108.632 45.4066 109.037 44.9166 109.037 44.1V41.2183H110.274V44.17C110.274 45.6633 109.394 46.5266 107.919 46.5266C106.456 46.5383 105.576 45.6633 105.576 44.17ZM110.654 41.2183H111.986L113.402 44.8233L114.829 41.2183H116.125L113.949 46.41H112.843L110.654 41.2183ZM121.168 45.185C120.728 46.0016 119.908 46.5266 118.778 46.5266C117.172 46.5266 116.03 45.4066 116.03 43.8083C116.03 42.2566 117.196 41.09 118.718 41.09C120.264 41.09 121.347 42.2566 121.347 43.8083C121.347 43.9016 121.347 44.03 121.335 44.1816H117.267C117.327 44.9283 118.005 45.5 118.79 45.5C119.479 45.5 119.836 45.1733 120.134 44.7183L121.168 45.185ZM120.11 43.295C120.026 42.6066 119.467 42.0933 118.694 42.0933C117.945 42.0933 117.362 42.7 117.279 43.295H120.11ZM123.273 46.41H122.025V41.2183H123.273V41.9066C123.571 41.405 124.058 41.09 124.784 41.09C125.545 41.09 126.104 41.4516 126.39 42.0583C126.675 41.5566 127.27 41.09 128.15 41.09C129.375 41.09 130.077 41.9183 130.077 43.2133V46.3983H128.828V43.4583C128.828 42.7 128.471 42.2216 127.817 42.2216C127.139 42.2216 126.699 42.7583 126.687 43.61V46.41H125.438V43.4933C125.438 42.6883 125.081 42.21 124.427 42.21C123.737 42.21 123.297 42.7583 123.297 43.645V46.41H123.273ZM131.587 44.695C131.765 45.1733 132.17 45.4883 132.646 45.4883C133.038 45.4883 133.359 45.3133 133.359 44.9516C133.359 44.66 133.181 44.52 132.753 44.3916L132.11 44.1933C131.218 43.9133 130.766 43.4116 130.766 42.6883C130.766 41.72 131.599 41.1016 132.586 41.1016C133.454 41.1016 134.168 41.5566 134.513 42.28L133.514 42.805C133.312 42.3966 132.99 42.1166 132.598 42.1166C132.241 42.1166 131.956 42.2916 131.956 42.595C131.956 42.84 132.146 43.0266 132.55 43.155L133.181 43.3533C134.168 43.68 134.572 44.1816 134.572 44.87C134.572 45.9316 133.668 46.5383 132.634 46.5383C131.646 46.5383 130.885 46.025 130.588 45.22L131.587 44.695ZM136.451 46.41H135.203V39.2816H136.451V41.9066C136.784 41.405 137.332 41.09 138.069 41.09C139.365 41.09 140.115 41.93 140.115 43.2833V46.41H138.866V43.5166C138.866 42.7116 138.461 42.2216 137.688 42.2216C136.939 42.2216 136.451 42.7816 136.451 43.6683V46.41ZM146.406 43.8083C146.406 45.3366 145.205 46.5266 143.588 46.5266C141.97 46.5266 140.769 45.325 140.769 43.8083C140.769 42.28 141.97 41.09 143.588 41.09C145.217 41.09 146.406 42.2916 146.406 43.8083ZM142.018 43.8083C142.018 44.695 142.707 45.4066 143.588 45.4066C144.468 45.4066 145.158 44.695 145.158 43.8083C145.158 42.9216 144.468 42.21 143.588 42.21C142.707 42.21 142.018 42.9216 142.018 43.8083ZM148.369 41.2183V41.965C148.761 41.4283 149.427 41.1016 150.165 41.1016C151.628 41.1016 152.746 42.2683 152.746 43.82C152.746 45.3483 151.628 46.5383 150.165 46.5383C149.427 46.5383 148.761 46.2466 148.369 45.6983V48.3466H147.132V41.2183H148.369ZM149.903 42.21C149.011 42.21 148.321 42.9333 148.321 43.82C148.321 44.7066 149.011 45.43 149.903 45.43C150.795 45.43 151.485 44.7066 151.485 43.82C151.485 42.9333 150.807 42.21 149.903 42.21ZM90.4711 37.3333C90.4592 37.3333 90.4592 37.3333 90.4711 37.3333C88.9011 37.3333 87.4263 37.9283 86.3202 38.99C85.7612 38.7566 85.1427 38.6283 84.5124 38.6283C81.9672 38.6283 79.8977 40.67 79.8977 43.1666C79.8977 45.6633 81.9672 47.705 84.5243 47.705C85.1427 47.705 85.7612 47.5766 86.3202 47.3433C87.3906 48.37 88.8535 49 90.4592 49C93.7418 49 96.4059 46.3866 96.4059 43.1666C96.4059 39.9583 93.7418 37.3333 90.4711 37.3333ZM90.4592 47.705C87.9139 47.705 85.8326 45.6633 85.8326 43.1666H84.5124C84.5124 44.31 84.8454 45.3833 85.4282 46.2816C85.1309 46.3633 84.8216 46.41 84.5124 46.41C82.6927 46.41 81.206 44.9516 81.206 43.1666C81.206 41.3816 82.6927 39.9233 84.5124 39.9233C85.2379 39.9233 85.9158 40.145 86.4986 40.5766C87.3431 41.195 87.8188 42.14 87.8188 43.1666H89.139C89.139 41.8133 88.5443 40.5533 87.4858 39.69C88.3183 39.0133 89.365 38.6283 90.4592 38.6283C93.0044 38.6283 95.0857 40.67 95.0857 43.1666C95.0857 45.6633 93.0163 47.705 90.4592 47.705Z" fill="#FAFAFA"/>
<path d="M64.6231 44.9812H65.5007V44.4725C65.7754 44.8597 66.2485 45.0723 66.7674 45.0723C67.7976 45.0723 68.5912 44.2144 68.5912 43.1211C68.5912 42.0051 67.7976 41.1699 66.7674 41.1699C66.2485 41.1699 65.7754 41.4053 65.5007 41.7925V39.6667H64.6231V44.9812ZM67.706 43.1211C67.706 43.7588 67.2176 44.2751 66.5843 44.2751C65.9509 44.2751 65.4625 43.7588 65.4625 43.1211C65.4625 42.4834 65.9509 41.9671 66.5843 41.9671C67.2176 41.9671 67.706 42.4834 67.706 43.1211Z" fill="#FAFAFA"/>
<path d="M69.704 46.6667C70.3374 46.6667 70.7494 46.3098 71.1157 45.4291L72.8479 41.261H71.9398L70.8868 43.9411L69.8642 41.261H68.9257L70.4213 44.928L70.2611 45.3152C70.0855 45.7404 69.8871 45.8847 69.5743 45.8847C69.4293 45.8847 69.2996 45.8619 69.1851 45.8087V46.5604C69.3072 46.6135 69.4674 46.6667 69.704 46.6667Z" fill="#FAFAFA"/>
</svg>
